<mxfile host="app.diagrams.net" modified="2021-09-03T21:07:44.663Z" agent="5.0 (Macintosh; Intel Mac OS X 10_15_7) AppleWebKit/605.1.15 (KHTML, like Gecko) Version/14.1.2 Safari/605.1.15" etag="kv88tq7UZUXn2ZlGN3BV" version="14.9.8" type="github">
  <diagram id="C5RBs43oDa-KdzZeNtuy" name="Page-1">
    <mxGraphModel dx="1275" dy="1491" grid="1" gridSize="10" guides="1" tooltips="1" connect="1" arrows="1" fold="1" page="1" pageScale="1" pageWidth="827" pageHeight="1169" math="0" shadow="0">
      <root>
        <mxCell id="WIyWlLk6GJQsqaUBKTNV-0" />
        <mxCell id="WIyWlLk6GJQsqaUBKTNV-1" parent="WIyWlLk6GJQsqaUBKTNV-0" />
        <mxCell id="WIyWlLk6GJQsqaUBKTNV-3" value="openDoor($&lt;span style=&quot;text-align: left&quot;&gt;doorId&lt;/span&gt;,&amp;nbsp;&lt;span style=&quot;font-family: &amp;#34;helvetica&amp;#34; ; text-align: left&quot;&gt;$&lt;/span&gt;&lt;span style=&quot;font-family: &amp;#34;helvetica&amp;#34;&quot;&gt;controllerId&lt;/span&gt;&lt;span style=&quot;font-family: &amp;#34;helvetica&amp;#34; ; text-align: left&quot;&gt;)&lt;/span&gt;" style="rounded=1;whiteSpace=wrap;html=1;fontSize=12;glass=0;strokeWidth=1;shadow=0;" parent="WIyWlLk6GJQsqaUBKTNV-1" vertex="1">
          <mxGeometry x="-674" y="-510" width="204" height="40" as="geometry" />
        </mxCell>
        <mxCell id="WIyWlLk6GJQsqaUBKTNV-7" value="activateOutput($door_id, $duration, $gpios)" style="rounded=1;whiteSpace=wrap;html=1;fontSize=12;glass=0;strokeWidth=1;shadow=0;" parent="WIyWlLk6GJQsqaUBKTNV-1" vertex="1">
          <mxGeometry x="-777" y="-860" width="207" height="40" as="geometry" />
        </mxCell>
        <mxCell id="WIyWlLk6GJQsqaUBKTNV-11" value="timerFunction" style="rounded=1;whiteSpace=wrap;html=1;fontSize=12;glass=0;strokeWidth=1;shadow=1;fillColor=#FFB366;" parent="WIyWlLk6GJQsqaUBKTNV-1" vertex="1">
          <mxGeometry x="-781" y="-800" width="111" height="35" as="geometry" />
        </mxCell>
        <mxCell id="WIyWlLk6GJQsqaUBKTNV-12" value="operateOutput($door_id, $state, $gpios)" style="rounded=1;whiteSpace=wrap;html=1;fontSize=12;glass=0;strokeWidth=1;shadow=0;" parent="WIyWlLk6GJQsqaUBKTNV-1" vertex="1">
          <mxGeometry x="-783.5" y="-750" width="220" height="40" as="geometry" />
        </mxCell>
        <mxCell id="QhEXJQEKvu9G6xQoDU1w-1" value="web" style="endArrow=classic;html=1;entryX=0.708;entryY=1.015;entryDx=0;entryDy=0;entryPerimeter=0;" parent="WIyWlLk6GJQsqaUBKTNV-1" target="WIyWlLk6GJQsqaUBKTNV-3" edge="1">
          <mxGeometry width="50" height="50" relative="1" as="geometry">
            <mxPoint x="-530" y="-360" as="sourcePoint" />
            <mxPoint x="-321" y="-650" as="targetPoint" />
          </mxGeometry>
        </mxCell>
        <mxCell id="QhEXJQEKvu9G6xQoDU1w-2" value="&lt;span style=&quot;font-size: 12px; background-color: rgb(248, 249, 250);&quot;&gt;coap://slave/activate/2/5/2-10&lt;/span&gt;" style="endArrow=classic;html=1;verticalAlign=bottom;labelPosition=right;verticalLabelPosition=bottom;align=center;horizontal=1;entryX=0.733;entryY=0.951;entryDx=0;entryDy=0;entryPerimeter=0;" parent="WIyWlLk6GJQsqaUBKTNV-1" target="QhEXJQEKvu9G6xQoDU1w-4" edge="1">
          <mxGeometry width="50" height="50" relative="1" as="geometry">
            <mxPoint x="-430" y="-362" as="sourcePoint" />
            <mxPoint x="-420" y="-920" as="targetPoint" />
            <Array as="points">
              <mxPoint x="-430" y="-410" />
            </Array>
          </mxGeometry>
        </mxCell>
        <mxCell id="QhEXJQEKvu9G6xQoDU1w-4" value="coap_listener" style="ellipse;whiteSpace=wrap;html=1;aspect=fixed;" parent="WIyWlLk6GJQsqaUBKTNV-1" vertex="1">
          <mxGeometry x="-481" y="-930" width="80" height="80" as="geometry" />
        </mxCell>
        <mxCell id="QhEXJQEKvu9G6xQoDU1w-10" value="" style="endArrow=classic;startArrow=classic;html=1;entryX=0.5;entryY=0;entryDx=0;entryDy=0;exitX=0.25;exitY=1;exitDx=0;exitDy=0;" parent="WIyWlLk6GJQsqaUBKTNV-1" source="WIyWlLk6GJQsqaUBKTNV-7" target="WIyWlLk6GJQsqaUBKTNV-11" edge="1">
          <mxGeometry width="50" height="50" relative="1" as="geometry">
            <mxPoint x="-751" y="-770" as="sourcePoint" />
            <mxPoint x="-630" y="-670" as="targetPoint" />
          </mxGeometry>
        </mxCell>
        <mxCell id="QhEXJQEKvu9G6xQoDU1w-11" value="match_cron" style="ellipse;whiteSpace=wrap;html=1;aspect=fixed;" parent="WIyWlLk6GJQsqaUBKTNV-1" vertex="1">
          <mxGeometry x="-760.5" y="-380" width="70" height="70" as="geometry" />
        </mxCell>
        <mxCell id="QhEXJQEKvu9G6xQoDU1w-15" value="setGPIO&lt;br&gt;door 1/2=68/66&amp;nbsp;&lt;br&gt;alarm 1/2=65/66&amp;nbsp;&lt;br&gt;writer led 1/2=2/10&amp;nbsp;&lt;br&gt;buzzer 79" style="rounded=1;whiteSpace=wrap;html=1;fontSize=12;glass=0;strokeWidth=1;shadow=0;strokeColor=#FF9999;" parent="WIyWlLk6GJQsqaUBKTNV-1" vertex="1">
          <mxGeometry x="-781" y="-980" width="131" height="97" as="geometry" />
        </mxCell>
        <mxCell id="QhEXJQEKvu9G6xQoDU1w-17" value="" style="endArrow=classic;html=1;exitX=0.128;exitY=-0.038;exitDx=0;exitDy=0;exitPerimeter=0;" parent="WIyWlLk6GJQsqaUBKTNV-1" source="WIyWlLk6GJQsqaUBKTNV-7" edge="1">
          <mxGeometry width="50" height="50" relative="1" as="geometry">
            <mxPoint x="-590" y="-883" as="sourcePoint" />
            <mxPoint x="-748" y="-883" as="targetPoint" />
          </mxGeometry>
        </mxCell>
        <mxCell id="QhEXJQEKvu9G6xQoDU1w-18" value="&lt;span style=&quot;color: rgb(0 , 0 , 0) ; font-family: &amp;#34;helvetica&amp;#34; ; font-size: 12px ; font-style: normal ; font-weight: normal ; letter-spacing: normal ; text-align: left ; text-indent: 0px ; text-transform: none ; word-spacing: 0px ; background-color: rgb(248 , 249 , 250) ; text-decoration: none ; display: inline ; float: none&quot;&gt;coap://slave/output/2/1/2-10&lt;/span&gt;" style="endArrow=classic;html=1;verticalAlign=top;exitX=0.207;exitY=0.006;exitDx=0;exitDy=0;entryX=0.5;entryY=1;entryDx=0;entryDy=0;exitPerimeter=0;" parent="WIyWlLk6GJQsqaUBKTNV-1" source="QhEXJQEKvu9G6xQoDU1w-89" target="QhEXJQEKvu9G6xQoDU1w-4" edge="1">
          <mxGeometry width="50" height="50" relative="1" as="geometry">
            <mxPoint x="-742" y="-470" as="sourcePoint" />
            <mxPoint x="-742" y="-680" as="targetPoint" />
          </mxGeometry>
        </mxCell>
        <mxCell id="QhEXJQEKvu9G6xQoDU1w-21" value="getGPIO" style="rounded=1;whiteSpace=wrap;html=1;fontSize=12;glass=0;strokeWidth=1;shadow=1;strokeColor=#FF9999;" parent="WIyWlLk6GJQsqaUBKTNV-1" vertex="1">
          <mxGeometry x="-781" y="-1030" width="100" height="40" as="geometry" />
        </mxCell>
        <mxCell id="QhEXJQEKvu9G6xQoDU1w-22" value="" style="endArrow=classic;html=1;verticalAlign=bottom;exitX=0;exitY=0;exitDx=0;exitDy=0;" parent="WIyWlLk6GJQsqaUBKTNV-1" source="QhEXJQEKvu9G6xQoDU1w-4" edge="1">
          <mxGeometry width="50" height="50" relative="1" as="geometry">
            <mxPoint x="-571" y="-880" as="sourcePoint" />
            <mxPoint x="-680" y="-1010" as="targetPoint" />
          </mxGeometry>
        </mxCell>
        <mxCell id="QhEXJQEKvu9G6xQoDU1w-23" value="match_listener" style="ellipse;whiteSpace=wrap;html=1;aspect=fixed;" parent="WIyWlLk6GJQsqaUBKTNV-1" vertex="1">
          <mxGeometry x="-470" y="-1110" width="80" height="80" as="geometry" />
        </mxCell>
        <mxCell id="QhEXJQEKvu9G6xQoDU1w-24" value="coap://master/input/1/1234" style="endArrow=classic;html=1;verticalAlign=bottom;exitX=0.763;exitY=0.95;exitDx=0;exitDy=0;exitPerimeter=0;" parent="WIyWlLk6GJQsqaUBKTNV-1" source="QhEXJQEKvu9G6xQoDU1w-23" target="QhEXJQEKvu9G6xQoDU1w-55" edge="1">
          <mxGeometry width="50" height="50" relative="1" as="geometry">
            <mxPoint x="-671" y="-730" as="sourcePoint" />
            <mxPoint x="-426" y="-870" as="targetPoint" />
          </mxGeometry>
        </mxCell>
        <mxCell id="QhEXJQEKvu9G6xQoDU1w-25" value="reader" style="endArrow=classic;html=1;verticalAlign=bottom;entryX=0;entryY=0;entryDx=0;entryDy=0;exitX=1;exitY=0.5;exitDx=0;exitDy=0;" parent="WIyWlLk6GJQsqaUBKTNV-1" source="QhEXJQEKvu9G6xQoDU1w-31" target="QhEXJQEKvu9G6xQoDU1w-23" edge="1">
          <mxGeometry width="50" height="50" relative="1" as="geometry">
            <mxPoint x="-631" y="-1098" as="sourcePoint" />
            <mxPoint x="-671" y="-810" as="targetPoint" />
          </mxGeometry>
        </mxCell>
        <mxCell id="QhEXJQEKvu9G6xQoDU1w-26" value="button 1/2=170/169" style="endArrow=classic;html=1;verticalAlign=bottom;entryX=0.002;entryY=0.392;entryDx=0;entryDy=0;entryPerimeter=0;" parent="WIyWlLk6GJQsqaUBKTNV-1" target="QhEXJQEKvu9G6xQoDU1w-23" edge="1">
          <mxGeometry width="50" height="50" relative="1" as="geometry">
            <mxPoint x="-641" y="-1079.7200000000003" as="sourcePoint" />
            <mxPoint x="-539.2842712474664" y="-1080.0042712474665" as="targetPoint" />
          </mxGeometry>
        </mxCell>
        <mxCell id="QhEXJQEKvu9G6xQoDU1w-30" value="sensor 1/2=168/45" style="endArrow=classic;html=1;verticalAlign=bottom;entryX=0.017;entryY=0.627;entryDx=0;entryDy=0;entryPerimeter=0;" parent="WIyWlLk6GJQsqaUBKTNV-1" target="QhEXJQEKvu9G6xQoDU1w-23" edge="1">
          <mxGeometry width="50" height="50" relative="1" as="geometry">
            <mxPoint x="-641" y="-1059.7200000000003" as="sourcePoint" />
            <mxPoint x="-539.2842712474664" y="-1060.0042712474665" as="targetPoint" />
          </mxGeometry>
        </mxCell>
        <mxCell id="QhEXJQEKvu9G6xQoDU1w-31" value="WiegandDriver" style="rounded=0;whiteSpace=wrap;html=1;" parent="WIyWlLk6GJQsqaUBKTNV-1" vertex="1">
          <mxGeometry x="-781" y="-1130" width="120" height="60" as="geometry" />
        </mxCell>
        <mxCell id="QhEXJQEKvu9G6xQoDU1w-41" value="match_listener" style="ellipse;whiteSpace=wrap;html=1;aspect=fixed;" parent="WIyWlLk6GJQsqaUBKTNV-1" vertex="1">
          <mxGeometry x="-121" y="-1110" width="80" height="80" as="geometry" />
        </mxCell>
        <mxCell id="QhEXJQEKvu9G6xQoDU1w-42" value="reader" style="endArrow=classic;html=1;verticalAlign=bottom;entryX=0;entryY=0;entryDx=0;entryDy=0;exitX=1;exitY=0.5;exitDx=0;exitDy=0;" parent="WIyWlLk6GJQsqaUBKTNV-1" source="QhEXJQEKvu9G6xQoDU1w-45" target="QhEXJQEKvu9G6xQoDU1w-41" edge="1">
          <mxGeometry width="50" height="50" relative="1" as="geometry">
            <mxPoint x="-211" y="-1098" as="sourcePoint" />
            <mxPoint x="-251" y="-810" as="targetPoint" />
          </mxGeometry>
        </mxCell>
        <mxCell id="QhEXJQEKvu9G6xQoDU1w-43" value="button 1/2=170/169" style="endArrow=classic;html=1;verticalAlign=bottom;entryX=0;entryY=0;entryDx=0;entryDy=0;" parent="WIyWlLk6GJQsqaUBKTNV-1" edge="1">
          <mxGeometry width="50" height="50" relative="1" as="geometry">
            <mxPoint x="-221" y="-1079.7200000000003" as="sourcePoint" />
            <mxPoint x="-119.28427124746645" y="-1080.0042712474665" as="targetPoint" />
          </mxGeometry>
        </mxCell>
        <mxCell id="QhEXJQEKvu9G6xQoDU1w-44" value="sensor 1/2=168/45" style="endArrow=classic;html=1;verticalAlign=bottom;entryX=0;entryY=0;entryDx=0;entryDy=0;" parent="WIyWlLk6GJQsqaUBKTNV-1" edge="1">
          <mxGeometry width="50" height="50" relative="1" as="geometry">
            <mxPoint x="-221" y="-1059.7200000000003" as="sourcePoint" />
            <mxPoint x="-119.28427124746645" y="-1060.0042712474665" as="targetPoint" />
          </mxGeometry>
        </mxCell>
        <mxCell id="QhEXJQEKvu9G6xQoDU1w-45" value="WiegandDriver" style="rounded=0;whiteSpace=wrap;html=1;" parent="WIyWlLk6GJQsqaUBKTNV-1" vertex="1">
          <mxGeometry x="-361" y="-1130" width="120" height="60" as="geometry" />
        </mxCell>
        <mxCell id="QhEXJQEKvu9G6xQoDU1w-46" value="coap_listener" style="ellipse;whiteSpace=wrap;html=1;aspect=fixed;" parent="WIyWlLk6GJQsqaUBKTNV-1" vertex="1">
          <mxGeometry x="-121" y="-930" width="80" height="80" as="geometry" />
        </mxCell>
        <mxCell id="QhEXJQEKvu9G6xQoDU1w-47" value="coap://master/input/1/1234" style="endArrow=classic;html=1;verticalAlign=top;exitX=0;exitY=1;exitDx=0;exitDy=0;horizontal=1;entryX=0.718;entryY=0.061;entryDx=0;entryDy=0;entryPerimeter=0;" parent="WIyWlLk6GJQsqaUBKTNV-1" source="QhEXJQEKvu9G6xQoDU1w-41" target="QhEXJQEKvu9G6xQoDU1w-55" edge="1">
          <mxGeometry width="50" height="50" relative="1" as="geometry">
            <mxPoint x="-449.96000000000004" y="-987.92" as="sourcePoint" />
            <mxPoint x="-346" y="-840" as="targetPoint" />
          </mxGeometry>
        </mxCell>
        <mxCell id="QhEXJQEKvu9G6xQoDU1w-50" value="&lt;span style=&quot;font-size: 12px ; text-align: left ; background-color: rgb(248 , 249 , 250)&quot;&gt;coap://slave/activate/3&lt;/span&gt;" style="endArrow=classic;html=1;verticalAlign=bottom;labelPosition=center;verticalLabelPosition=top;align=center;horizontal=1;exitX=0.975;exitY=0.021;exitDx=0;exitDy=0;exitPerimeter=0;entryX=0.5;entryY=1;entryDx=0;entryDy=0;" parent="WIyWlLk6GJQsqaUBKTNV-1" source="QhEXJQEKvu9G6xQoDU1w-107" target="QhEXJQEKvu9G6xQoDU1w-46" edge="1">
          <mxGeometry width="50" height="50" relative="1" as="geometry">
            <mxPoint x="-89" y="-510.9000000000001" as="sourcePoint" />
            <mxPoint x="-106" y="-920" as="targetPoint" />
            <Array as="points">
              <mxPoint x="-20" y="-490" />
              <mxPoint x="-81" y="-490" />
            </Array>
          </mxGeometry>
        </mxCell>
        <mxCell id="QhEXJQEKvu9G6xQoDU1w-55" value="coap_server" style="ellipse;whiteSpace=wrap;html=1;aspect=fixed;" parent="WIyWlLk6GJQsqaUBKTNV-1" vertex="1">
          <mxGeometry x="-320" y="-660" width="120" height="120" as="geometry" />
        </mxCell>
        <mxCell id="QhEXJQEKvu9G6xQoDU1w-58" value="" style="endArrow=classic;html=1;verticalAlign=top;exitX=0.5;exitY=1;exitDx=0;exitDy=0;entryX=0.5;entryY=0;entryDx=0;entryDy=0;" parent="WIyWlLk6GJQsqaUBKTNV-1" source="QhEXJQEKvu9G6xQoDU1w-55" target="QhEXJQEKvu9G6xQoDU1w-97" edge="1">
          <mxGeometry width="50" height="50" relative="1" as="geometry">
            <mxPoint x="-466" y="-720" as="sourcePoint" />
            <mxPoint x="-266.46000000000004" y="-510.53999999999996" as="targetPoint" />
          </mxGeometry>
        </mxCell>
        <mxCell id="QhEXJQEKvu9G6xQoDU1w-67" value="button_1 = 1 = 170 &lt;br&gt;button_2 = 1 = 169 &lt;br&gt;sensor_1 = 1 = 168 &lt;br&gt;sensor_2 = 1 = 45&lt;br&gt;writer &amp;gt; coap://master/input/1/1234 &amp;gt; &amp;nbsp;handleUserAccess&lt;br&gt;getGPIO &amp;lt; checkOutput &amp;lt; coap://slave/status/66-2 &amp;lt; checkOutput&lt;br&gt;setGPIO &amp;lt; operateOutput &amp;lt; coap://slave/output/2/1/2-10 &amp;lt; handleUserAcess&lt;br&gt;setGPIO &amp;lt; activateOutput &amp;lt; coap://slave/activate/2/5/2-10 &amp;lt; checkAndHandleInput&lt;br&gt;door_1 = 2 = 68&lt;br&gt;door_2 = 1 = 66&lt;br&gt;alarm_1 = 2 = 65&lt;br&gt;alarm_2 = 1 = 66" style="text;whiteSpace=wrap;html=1;" parent="WIyWlLk6GJQsqaUBKTNV-1" vertex="1">
          <mxGeometry x="-783.5" y="-270" width="550" height="220" as="geometry" />
        </mxCell>
        <mxCell id="QhEXJQEKvu9G6xQoDU1w-68" value="" style="endArrow=classic;html=1;align=center;verticalAlign=bottom;exitX=0;exitY=0.5;exitDx=0;exitDy=0;" parent="WIyWlLk6GJQsqaUBKTNV-1" source="WIyWlLk6GJQsqaUBKTNV-12" edge="1">
          <mxGeometry width="50" height="50" relative="1" as="geometry">
            <mxPoint x="-800" y="-730" as="sourcePoint" />
            <mxPoint x="-777" y="-948" as="targetPoint" />
            <Array as="points">
              <mxPoint x="-800" y="-730" />
              <mxPoint x="-800" y="-948" />
            </Array>
          </mxGeometry>
        </mxCell>
        <mxCell id="QhEXJQEKvu9G6xQoDU1w-71" value="" style="endArrow=none;dashed=1;html=1;dashPattern=1 3;strokeWidth=2;align=center;verticalAlign=bottom;" parent="WIyWlLk6GJQsqaUBKTNV-1" edge="1">
          <mxGeometry width="50" height="50" relative="1" as="geometry">
            <mxPoint x="-820" y="-599" as="sourcePoint" />
            <mxPoint x="-380" y="-1160" as="targetPoint" />
            <Array as="points">
              <mxPoint x="-520" y="-600" />
              <mxPoint x="-380" y="-760" />
            </Array>
          </mxGeometry>
        </mxCell>
        <mxCell id="QhEXJQEKvu9G6xQoDU1w-72" value="&lt;span style=&quot;color: rgb(0, 0, 0); font-family: helvetica; font-size: 12px; font-style: normal; font-weight: normal; letter-spacing: normal; text-align: center; text-indent: 0px; text-transform: none; word-spacing: 0px; background-color: rgb(248, 249, 250); text-decoration: none; display: inline; float: none;&quot;&gt;coap://slave/activate/2/5/2-10&lt;/span&gt;" style="endArrow=classic;html=1;align=center;verticalAlign=top;exitX=0.657;exitY=0;exitDx=0;exitDy=0;exitPerimeter=0;entryX=0.704;entryY=0.981;entryDx=0;entryDy=0;entryPerimeter=0;" parent="WIyWlLk6GJQsqaUBKTNV-1" source="WIyWlLk6GJQsqaUBKTNV-3" target="QhEXJQEKvu9G6xQoDU1w-4" edge="1">
          <mxGeometry width="50" height="50" relative="1" as="geometry">
            <mxPoint x="-490" y="-560" as="sourcePoint" />
            <mxPoint x="-440" y="-850" as="targetPoint" />
          </mxGeometry>
        </mxCell>
        <mxCell id="QhEXJQEKvu9G6xQoDU1w-73" value="&lt;b&gt;&lt;font style=&quot;font-size: 24px&quot;&gt;SLAVE&lt;/font&gt;&lt;/b&gt;" style="text;html=1;align=center;verticalAlign=middle;resizable=0;points=[];autosize=1;strokeColor=none;" parent="WIyWlLk6GJQsqaUBKTNV-1" vertex="1">
          <mxGeometry x="-787" y="-630" width="90" height="20" as="geometry" />
        </mxCell>
        <mxCell id="QhEXJQEKvu9G6xQoDU1w-74" value="&lt;b&gt;&lt;font style=&quot;font-size: 24px&quot;&gt;MASTER&lt;/font&gt;&lt;/b&gt;" style="text;html=1;align=center;verticalAlign=middle;resizable=0;points=[];autosize=1;strokeColor=none;" parent="WIyWlLk6GJQsqaUBKTNV-1" vertex="1">
          <mxGeometry x="-790" y="-590" width="120" height="20" as="geometry" />
        </mxCell>
        <mxCell id="QhEXJQEKvu9G6xQoDU1w-77" value="" style="endArrow=classic;html=1;align=center;verticalAlign=bottom;exitX=0;exitY=0.5;exitDx=0;exitDy=0;entryX=1;entryY=0.5;entryDx=0;entryDy=0;" parent="WIyWlLk6GJQsqaUBKTNV-1" source="QhEXJQEKvu9G6xQoDU1w-4" target="WIyWlLk6GJQsqaUBKTNV-7" edge="1">
          <mxGeometry width="50" height="50" relative="1" as="geometry">
            <mxPoint x="-550" y="-740" as="sourcePoint" />
            <mxPoint x="-500" y="-790" as="targetPoint" />
          </mxGeometry>
        </mxCell>
        <mxCell id="QhEXJQEKvu9G6xQoDU1w-78" value="coap://slave/status/66-2" style="endArrow=classic;html=1;verticalAlign=bottom;exitX=0.25;exitY=0.25;exitDx=0;exitDy=0;exitPerimeter=0;" parent="WIyWlLk6GJQsqaUBKTNV-1" source="QhEXJQEKvu9G6xQoDU1w-87" edge="1">
          <mxGeometry width="50" height="50" relative="1" as="geometry">
            <mxPoint x="-390" y="-610" as="sourcePoint" />
            <mxPoint x="-400" y="-890" as="targetPoint" />
          </mxGeometry>
        </mxCell>
        <mxCell id="QhEXJQEKvu9G6xQoDU1w-79" value="" style="endArrow=none;dashed=1;html=1;dashPattern=1 3;strokeWidth=2;align=center;verticalAlign=bottom;entryX=0.763;entryY=1;entryDx=0;entryDy=0;exitX=0;exitY=0.5;exitDx=0;exitDy=0;entryPerimeter=0;" parent="WIyWlLk6GJQsqaUBKTNV-1" source="QhEXJQEKvu9G6xQoDU1w-4" target="QhEXJQEKvu9G6xQoDU1w-4" edge="1">
          <mxGeometry width="50" height="50" relative="1" as="geometry">
            <mxPoint x="-480" y="-760" as="sourcePoint" />
            <mxPoint x="-430" y="-810" as="targetPoint" />
          </mxGeometry>
        </mxCell>
        <mxCell id="QhEXJQEKvu9G6xQoDU1w-85" value="" style="endArrow=classic;html=1;align=center;verticalAlign=top;exitX=0.5;exitY=0;exitDx=0;exitDy=0;entryX=0.299;entryY=0.976;entryDx=0;entryDy=0;entryPerimeter=0;" parent="WIyWlLk6GJQsqaUBKTNV-1" source="QhEXJQEKvu9G6xQoDU1w-11" target="QhEXJQEKvu9G6xQoDU1w-89" edge="1">
          <mxGeometry width="50" height="50" relative="1" as="geometry">
            <mxPoint x="-620" y="-350" as="sourcePoint" />
            <mxPoint x="-740" y="-410" as="targetPoint" />
          </mxGeometry>
        </mxCell>
        <mxCell id="QhEXJQEKvu9G6xQoDU1w-87" value="" style="ellipse;shape=cloud;whiteSpace=wrap;html=1;shadow=1;strokeColor=#FF9999;" parent="WIyWlLk6GJQsqaUBKTNV-1" vertex="1">
          <mxGeometry x="-401" y="-610" width="40" height="20" as="geometry" />
        </mxCell>
        <mxCell id="QhEXJQEKvu9G6xQoDU1w-89" value="&lt;span style=&quot;font-family: &amp;#34;helvetica&amp;#34; ; text-align: left&quot;&gt;checkDoorSchedule($doorId&lt;/span&gt;&lt;span style=&quot;text-align: left ; font-family: &amp;#34;helvetica&amp;#34;&quot;&gt;, $&lt;/span&gt;&lt;span style=&quot;font-family: &amp;#34;helvetica&amp;#34;&quot;&gt;controllerId&lt;/span&gt;&lt;span style=&quot;font-family: &amp;#34;helvetica&amp;#34; ; text-align: left&quot;&gt;)&lt;/span&gt;" style="rounded=1;whiteSpace=wrap;html=1;fontSize=12;glass=0;strokeWidth=1;shadow=0;" parent="WIyWlLk6GJQsqaUBKTNV-1" vertex="1">
          <mxGeometry x="-800" y="-460" width="244" height="40" as="geometry" />
        </mxCell>
        <mxCell id="QhEXJQEKvu9G6xQoDU1w-92" value="" style="endArrow=none;dashed=1;html=1;dashPattern=1 3;strokeWidth=2;align=center;verticalAlign=top;exitX=0;exitY=0;exitDx=0;exitDy=0;" parent="WIyWlLk6GJQsqaUBKTNV-1" source="QhEXJQEKvu9G6xQoDU1w-4" edge="1">
          <mxGeometry width="50" height="50" relative="1" as="geometry">
            <mxPoint x="-630" y="-780" as="sourcePoint" />
            <mxPoint x="-400" y="-890" as="targetPoint" />
          </mxGeometry>
        </mxCell>
        <mxCell id="QhEXJQEKvu9G6xQoDU1w-93" value="" style="endArrow=classic;html=1;align=center;verticalAlign=top;exitX=0;exitY=1;exitDx=0;exitDy=0;" parent="WIyWlLk6GJQsqaUBKTNV-1" source="QhEXJQEKvu9G6xQoDU1w-4" edge="1">
          <mxGeometry width="50" height="50" relative="1" as="geometry">
            <mxPoint x="-610" y="-720" as="sourcePoint" />
            <mxPoint x="-560" y="-730" as="targetPoint" />
          </mxGeometry>
        </mxCell>
        <mxCell id="QhEXJQEKvu9G6xQoDU1w-94" value="" style="endArrow=none;dashed=1;html=1;dashPattern=1 3;strokeWidth=2;align=center;verticalAlign=top;entryX=0.5;entryY=1;entryDx=0;entryDy=0;exitX=0;exitY=1;exitDx=0;exitDy=0;" parent="WIyWlLk6GJQsqaUBKTNV-1" source="QhEXJQEKvu9G6xQoDU1w-4" target="QhEXJQEKvu9G6xQoDU1w-4" edge="1">
          <mxGeometry width="50" height="50" relative="1" as="geometry">
            <mxPoint x="-610" y="-720" as="sourcePoint" />
            <mxPoint x="-560" y="-770" as="targetPoint" />
          </mxGeometry>
        </mxCell>
        <mxCell id="QhEXJQEKvu9G6xQoDU1w-95" value="" style="endArrow=classic;html=1;align=center;verticalAlign=top;entryX=0.332;entryY=0.987;entryDx=0;entryDy=0;entryPerimeter=0;" parent="WIyWlLk6GJQsqaUBKTNV-1" target="QhEXJQEKvu9G6xQoDU1w-46" edge="1">
          <mxGeometry width="50" height="50" relative="1" as="geometry">
            <mxPoint x="-120" y="-790" as="sourcePoint" />
            <mxPoint x="-310" y="-790" as="targetPoint" />
          </mxGeometry>
        </mxCell>
        <mxCell id="QhEXJQEKvu9G6xQoDU1w-96" value="See &amp;lt; for more&lt;br&gt;-activate&lt;br&gt;-output&lt;br&gt;-status" style="text;html=1;strokeColor=none;fillColor=none;align=center;verticalAlign=middle;whiteSpace=wrap;rounded=0;shadow=1;" parent="WIyWlLk6GJQsqaUBKTNV-1" vertex="1">
          <mxGeometry x="-190" y="-785" width="100" height="65" as="geometry" />
        </mxCell>
        <mxCell id="QhEXJQEKvu9G6xQoDU1w-97" value="&lt;div style=&quot;font-family: &amp;#34;helvetica&amp;#34; ; text-align: left&quot;&gt;handleInput($from, $input, $keycode)&lt;/div&gt;&lt;div style=&quot;font-family: &amp;#34;helvetica&amp;#34; ; text-align: left&quot;&gt;controller = resolveController($from);&lt;/div&gt;" style="rhombus;whiteSpace=wrap;html=1;shadow=1;strokeColor=#000000;" parent="WIyWlLk6GJQsqaUBKTNV-1" vertex="1">
          <mxGeometry x="-399" y="-500" width="275" height="80" as="geometry" />
        </mxCell>
        <mxCell id="QhEXJQEKvu9G6xQoDU1w-98" value="reader" style="endArrow=classic;html=1;align=center;verticalAlign=top;exitX=0.5;exitY=1;exitDx=0;exitDy=0;entryX=0.5;entryY=0;entryDx=0;entryDy=0;" parent="WIyWlLk6GJQsqaUBKTNV-1" source="QhEXJQEKvu9G6xQoDU1w-97" target="QhEXJQEKvu9G6xQoDU1w-99" edge="1">
          <mxGeometry width="50" height="50" relative="1" as="geometry">
            <mxPoint x="-410" y="-330" as="sourcePoint" />
            <mxPoint x="-360" y="-380" as="targetPoint" />
          </mxGeometry>
        </mxCell>
        <mxCell id="QhEXJQEKvu9G6xQoDU1w-99" value="&lt;div style=&quot;font-family: &amp;#34;helvetica&amp;#34; ; text-align: left&quot;&gt;user = find_user_by_keycode($keycode)&lt;/div&gt;&lt;div style=&quot;font-family: &amp;#34;helvetica&amp;#34; ; text-align: left&quot;&gt;&lt;span&gt; &lt;/span&gt;handleUserAccess($user, $input, $controller-&amp;gt;id&lt;/div&gt;" style="rounded=1;whiteSpace=wrap;html=1;shadow=1;strokeColor=#000000;" parent="WIyWlLk6GJQsqaUBKTNV-1" vertex="1">
          <mxGeometry x="-401" y="-260" width="277" height="60" as="geometry" />
        </mxCell>
        <mxCell id="QhEXJQEKvu9G6xQoDU1w-100" value="&lt;span style=&quot;font-family: &amp;#34;helvetica&amp;#34; ; text-align: left&quot;&gt;openDoor($door-&amp;gt;id, $controllerId);&lt;/span&gt;" style="rounded=1;whiteSpace=wrap;html=1;shadow=1;strokeColor=#000000;" parent="WIyWlLk6GJQsqaUBKTNV-1" vertex="1">
          <mxGeometry x="-510" y="-360" width="220" height="60" as="geometry" />
        </mxCell>
        <mxCell id="QhEXJQEKvu9G6xQoDU1w-101" value="button" style="endArrow=classic;html=1;align=center;verticalAlign=middle;exitX=0;exitY=0.5;exitDx=0;exitDy=0;entryX=0.5;entryY=0;entryDx=0;entryDy=0;labelPosition=center;verticalLabelPosition=middle;" parent="WIyWlLk6GJQsqaUBKTNV-1" source="QhEXJQEKvu9G6xQoDU1w-97" target="QhEXJQEKvu9G6xQoDU1w-100" edge="1">
          <mxGeometry width="50" height="50" relative="1" as="geometry">
            <mxPoint x="-410" y="-330" as="sourcePoint" />
            <mxPoint x="-360" y="-380" as="targetPoint" />
          </mxGeometry>
        </mxCell>
        <mxCell id="QhEXJQEKvu9G6xQoDU1w-103" value="" style="endArrow=classic;html=1;align=center;verticalAlign=top;exitX=0.25;exitY=0;exitDx=0;exitDy=0;" parent="WIyWlLk6GJQsqaUBKTNV-1" source="QhEXJQEKvu9G6xQoDU1w-99" edge="1">
          <mxGeometry width="50" height="50" relative="1" as="geometry">
            <mxPoint x="-470" y="-340" as="sourcePoint" />
            <mxPoint x="-430" y="-300" as="targetPoint" />
          </mxGeometry>
        </mxCell>
        <mxCell id="QhEXJQEKvu9G6xQoDU1w-104" value="sensor" style="endArrow=classic;html=1;align=center;verticalAlign=middle;exitX=1;exitY=0.5;exitDx=0;exitDy=0;labelPosition=center;verticalLabelPosition=middle;" parent="WIyWlLk6GJQsqaUBKTNV-1" source="QhEXJQEKvu9G6xQoDU1w-97" edge="1">
          <mxGeometry width="50" height="50" relative="1" as="geometry">
            <mxPoint x="-389" y="-450" as="sourcePoint" />
            <mxPoint x="-124" y="-360" as="targetPoint" />
          </mxGeometry>
        </mxCell>
        <mxCell id="QhEXJQEKvu9G6xQoDU1w-109" value="" style="edgeStyle=orthogonalEdgeStyle;rounded=0;orthogonalLoop=1;jettySize=auto;html=1;align=center;verticalAlign=top;" parent="WIyWlLk6GJQsqaUBKTNV-1" source="QhEXJQEKvu9G6xQoDU1w-105" target="QhEXJQEKvu9G6xQoDU1w-106" edge="1">
          <mxGeometry relative="1" as="geometry">
            <Array as="points">
              <mxPoint x="-126" y="-290" />
              <mxPoint x="-71" y="-290" />
            </Array>
          </mxGeometry>
        </mxCell>
        <mxCell id="QhEXJQEKvu9G6xQoDU1w-105" value="&lt;div style=&quot;font-family: &amp;#34;helvetica&amp;#34; ; text-align: left&quot;&gt;checkAndHandleSensor($input)&amp;nbsp;&lt;br&gt;&lt;/div&gt;" style="rounded=1;whiteSpace=wrap;html=1;shadow=1;strokeColor=#000000;" parent="WIyWlLk6GJQsqaUBKTNV-1" vertex="1">
          <mxGeometry x="-230" y="-360" width="207" height="60" as="geometry" />
        </mxCell>
        <mxCell id="QhEXJQEKvu9G6xQoDU1w-110" value="" style="edgeStyle=orthogonalEdgeStyle;rounded=0;orthogonalLoop=1;jettySize=auto;html=1;align=center;verticalAlign=top;" parent="WIyWlLk6GJQsqaUBKTNV-1" source="QhEXJQEKvu9G6xQoDU1w-106" target="QhEXJQEKvu9G6xQoDU1w-107" edge="1">
          <mxGeometry relative="1" as="geometry">
            <Array as="points">
              <mxPoint x="-71" y="-190" />
              <mxPoint x="-152" y="-190" />
            </Array>
          </mxGeometry>
        </mxCell>
        <mxCell id="QhEXJQEKvu9G6xQoDU1w-106" value="timer" style="ellipse;whiteSpace=wrap;html=1;shadow=1;strokeColor=#000000;fillColor=#FFB366;" parent="WIyWlLk6GJQsqaUBKTNV-1" vertex="1">
          <mxGeometry x="-101" y="-280" width="60" height="50" as="geometry" />
        </mxCell>
        <mxCell id="QhEXJQEKvu9G6xQoDU1w-107" value="&lt;div style=&quot;font-family: &amp;#34;helvetica&amp;#34; ; text-align: left&quot;&gt;find_alarm_for_sensor_id($id,$controllerId)&lt;/div&gt;&lt;div style=&quot;font-family: &amp;#34;helvetica&amp;#34; ; text-align: left&quot;&gt;&lt;span&gt; &lt;/span&gt;soundAlarm()&lt;/div&gt;" style="rounded=1;whiteSpace=wrap;html=1;shadow=1;strokeColor=#000000;" parent="WIyWlLk6GJQsqaUBKTNV-1" vertex="1">
          <mxGeometry x="-290" y="-170" width="277" height="60" as="geometry" />
        </mxCell>
      </root>
    </mxGraphModel>
  </diagram>
</mxfile>
